<?xml version="1.0" encoding="UTF-8"?>
<svg xmlns="http://www.w3.org/2000/svg" xmlns:xlink="http://www.w3.org/1999/xlink" width="80px" height="80px" viewBox="0 0 80 80" version="1.1">
<g id="surface1">
<path style=" stroke:none;fill-rule:nonzero;fill:rgb(30.196078%,29.803922%,47.058824%);fill-opacity:1;" d="M 38.179688 7.5625 L 6.65625 19.957031 C 5.925781 20.25 5.925781 21.289062 6.65625 21.582031 L 40.019531 34.695312 C 40.222656 34.777344 40.453125 34.777344 40.65625 34.695312 L 74.015625 21.582031 C 74.753906 21.289062 74.753906 20.25 74.015625 19.957031 L 42.492188 7.5625 C 41.109375 7.015625 39.566406 7.015625 38.179688 7.5625 Z M 38.179688 7.5625 "/>
<path style=" stroke:none;fill-rule:nonzero;fill:rgb(19.607843%,19.215686%,31.372549%);fill-opacity:1;" d="M 28.917969 19.222656 L 18.460938 26.21875 L 28.75 30.265625 Z M 28.917969 19.222656 "/>
<path style=" stroke:none;fill-rule:nonzero;fill:rgb(19.607843%,19.215686%,31.372549%);fill-opacity:1;" d="M 51.757812 19.222656 L 62.210938 26.21875 L 51.929688 30.265625 Z M 51.757812 19.222656 "/>
<path style=" stroke:none;fill-rule:nonzero;fill:rgb(30.196078%,29.803922%,47.058824%);fill-opacity:1;" d="M 55.992188 43.269531 L 24.683594 43.269531 L 27.582031 20.683594 C 27.675781 19.964844 28.210938 19.382812 28.917969 19.222656 C 37.238281 17.371094 44.871094 17.359375 51.820312 19.1875 C 52.496094 19.363281 53 19.933594 53.085938 20.628906 Z M 55.992188 43.269531 "/>
<path style=" stroke:none;fill-rule:nonzero;fill:rgb(19.607843%,19.215686%,31.372549%);fill-opacity:1;" d="M 32.519531 24.230469 C 32.613281 23.511719 33.144531 22.929688 33.855469 22.769531 C 40.800781 21.226562 47.269531 20.960938 53.261719 21.980469 L 53.085938 20.628906 C 53 19.933594 52.496094 19.363281 51.820312 19.1875 C 44.875 17.359375 37.238281 17.371094 28.917969 19.222656 C 28.210938 19.382812 27.675781 19.964844 27.582031 20.683594 L 24.683594 43.269531 L 30.074219 43.269531 Z M 32.519531 24.230469 "/>
<path style=" stroke:none;fill-rule:nonzero;fill:rgb(19.607843%,19.215686%,31.372549%);fill-opacity:1;" d="M 55.992188 43.269531 C 55.992188 42.207031 48.984375 41.347656 40.339844 41.347656 C 31.695312 41.347656 24.6875 42.207031 24.6875 43.269531 C 24.6875 44.332031 31.695312 45.195312 40.339844 45.195312 C 48.984375 45.195312 55.992188 44.332031 55.992188 43.269531 Z M 55.992188 43.269531 "/>
<path style=" stroke:none;fill-rule:nonzero;fill:rgb(19.607843%,19.215686%,31.372549%);fill-opacity:1;" d="M 63.664062 39.679688 C 63.457031 39.679688 63.257812 39.597656 63.113281 39.453125 C 62.964844 39.304688 62.882812 39.105469 62.882812 38.898438 L 62.882812 16.742188 C 62.882812 16.308594 63.234375 15.960938 63.664062 15.960938 C 64.09375 15.960938 64.445312 16.308594 64.445312 16.742188 L 64.445312 38.898438 C 64.445312 39.332031 64.09375 39.679688 63.664062 39.679688 Z M 63.664062 39.679688 "/>
<path style=" stroke:none;fill-rule:nonzero;fill:rgb(30.196078%,29.803922%,47.058824%);fill-opacity:1;" d="M 63.554688 47.347656 C 62.0625 47.347656 60.851562 46.136719 60.851562 44.644531 L 60.851562 40.304688 C 60.90625 38.851562 62.097656 37.703125 63.554688 37.703125 C 65.007812 37.703125 66.199219 38.851562 66.253906 40.304688 L 66.253906 44.644531 C 66.253906 46.136719 65.046875 47.34375 63.554688 47.347656 Z M 63.554688 47.347656 "/>
<path style=" stroke:none;fill-rule:nonzero;fill:rgb(19.607843%,19.215686%,31.372549%);fill-opacity:1;" d="M 62.210938 46.125 L 62.210938 41.789062 C 62.210938 40.859375 62.6875 39.996094 63.472656 39.5 C 64.257812 39.003906 65.242188 38.945312 66.078125 39.347656 C 65.621094 38.125 64.351562 37.402344 63.066406 37.640625 C 61.78125 37.875 60.847656 38.996094 60.851562 40.304688 L 60.851562 44.644531 C 60.851562 45.683594 61.449219 46.632812 62.386719 47.082031 C 62.273438 46.777344 62.210938 46.453125 62.210938 46.125 Z M 62.210938 46.125 "/>
<path style=" stroke:none;fill-rule:nonzero;fill:rgb(30.196078%,29.803922%,47.058824%);fill-opacity:1;" d="M 71.316406 50.160156 C 70.820312 49.492188 70.035156 49.09375 69.199219 49.097656 L 9.398438 49.097656 C 8.5625 49.097656 7.777344 49.492188 7.277344 50.160156 C 4.816406 53.480469 4.816406 56.800781 7.277344 60.121094 C 7.777344 60.792969 8.5625 61.1875 9.398438 61.1875 L 69.199219 61.1875 C 70.035156 61.1875 70.820312 60.792969 71.316406 60.121094 C 73.785156 56.800781 73.785156 53.480469 71.316406 50.160156 Z M 71.316406 50.160156 "/>
<path style=" stroke:none;fill-rule:nonzero;fill:rgb(24.705882%,24.313725%,41.960784%);fill-opacity:1;" d="M 72.867188 56.867188 L 13.066406 56.867188 C 12.230469 56.867188 11.445312 56.472656 10.945312 55.800781 C 9.289062 53.570312 8.746094 51.332031 9.320312 49.097656 C 8.511719 49.125 7.761719 49.515625 7.277344 50.160156 C 4.816406 53.480469 4.816406 56.800781 7.277344 60.121094 C 7.777344 60.792969 8.5625 61.1875 9.398438 61.1875 L 69.199219 61.1875 C 70.035156 61.1875 70.820312 60.792969 71.316406 60.121094 C 72.125 59.035156 72.667969 57.953125 72.945312 56.867188 Z M 72.867188 56.867188 "/>
<path style=" stroke:none;fill-rule:nonzero;fill:rgb(19.607843%,19.215686%,31.372549%);fill-opacity:1;" d="M 16.921875 49.097656 L 21.796875 49.097656 L 21.796875 61.1875 L 16.921875 61.1875 Z M 16.921875 49.097656 "/>
<path style=" stroke:none;fill-rule:nonzero;fill:rgb(19.607843%,19.215686%,31.372549%);fill-opacity:1;" d="M 56.800781 49.097656 L 61.675781 49.097656 L 61.675781 61.1875 L 56.800781 61.1875 Z M 56.800781 49.097656 "/>
<path style=" stroke:none;fill-rule:nonzero;fill:rgb(39.215686%,38.823529%,61.176471%);fill-opacity:1;" d="M 50.945312 24.910156 L 50.949219 24.910156 C 52.234375 24.722656 53.425781 25.617188 53.613281 26.902344 L 55.054688 36.914062 C 55.238281 38.199219 54.347656 39.394531 53.0625 39.578125 L 53.058594 39.578125 C 51.769531 39.765625 50.578125 38.871094 50.394531 37.585938 L 48.949219 27.574219 C 48.765625 26.289062 49.65625 25.09375 50.945312 24.910156 Z M 50.945312 24.910156 "/>
<path style=" stroke:none;fill-rule:nonzero;fill:rgb(39.215686%,38.823529%,61.176471%);fill-opacity:1;" d="M 44.382812 11.199219 L 44.386719 11.195312 C 44.828125 9.972656 46.175781 9.339844 47.398438 9.785156 L 56.910156 13.226562 C 58.132812 13.667969 58.761719 15.019531 58.320312 16.238281 L 58.320312 16.242188 C 57.878906 17.464844 56.527344 18.097656 55.304688 17.65625 L 45.796875 14.210938 C 44.574219 13.769531 43.941406 12.421875 44.382812 11.199219 Z M 44.382812 11.199219 "/>
<path style=" stroke:none;fill-rule:nonzero;fill:rgb(39.215686%,38.823529%,61.176471%);fill-opacity:1;" d="M 65.089844 40.742188 C 65.699219 40.742188 66.195312 41.238281 66.195312 41.851562 L 66.195312 44.085938 C 66.195312 44.699219 65.699219 45.195312 65.089844 45.195312 C 64.476562 45.195312 63.980469 44.699219 63.980469 44.085938 L 63.980469 41.851562 C 63.980469 41.238281 64.476562 40.742188 65.089844 40.742188 Z M 65.089844 40.742188 "/>
<path style=" stroke:none;fill-rule:nonzero;fill:rgb(95.686275%,76.078431%,24.705882%);fill-opacity:1;" d="M 50.101562 59.855469 C 50.101562 60.945312 48.527344 61.773438 48.207031 62.75 C 47.886719 63.730469 48.65625 65.363281 48.039062 66.207031 C 47.421875 67.054688 45.660156 66.808594 44.804688 67.433594 C 43.949219 68.058594 43.65625 69.804688 42.636719 70.132812 C 41.621094 70.464844 40.386719 69.222656 39.296875 69.222656 C 38.207031 69.222656 36.941406 70.453125 35.960938 70.132812 C 34.980469 69.816406 34.640625 68.050781 33.796875 67.433594 C 32.949219 66.816406 31.179688 67.0625 30.558594 66.207031 C 29.941406 65.355469 30.71875 63.769531 30.390625 62.75 C 30.0625 61.734375 28.496094 60.945312 28.496094 59.855469 C 28.496094 58.765625 30.070312 57.945312 30.390625 56.964844 C 30.710938 55.984375 29.945312 54.351562 30.558594 53.507812 C 31.175781 52.660156 32.941406 52.902344 33.796875 52.28125 C 34.648438 51.660156 34.941406 49.910156 35.960938 49.582031 C 36.980469 49.253906 38.210938 50.492188 39.296875 50.492188 C 40.382812 50.492188 41.660156 49.261719 42.636719 49.582031 C 43.617188 49.902344 43.957031 51.664062 44.804688 52.28125 C 45.652344 52.898438 47.417969 52.652344 48.039062 53.507812 C 48.660156 54.359375 47.875 55.945312 48.207031 56.964844 C 48.539062 57.984375 50.101562 58.769531 50.101562 59.855469 Z M 50.101562 59.855469 "/>
<path style=" stroke:none;fill-rule:nonzero;fill:rgb(95.686275%,66.27451%,24.705882%);fill-opacity:1;" d="M 39.046875 67.597656 C 36.191406 67.59375 33.613281 65.875 32.519531 63.234375 C 31.425781 60.59375 32.03125 57.554688 34.046875 55.53125 C 34.695312 54.886719 35.457031 54.375 36.296875 54.015625 C 38.945312 52.898438 42.011719 53.496094 44.046875 55.53125 C 46.082031 57.566406 46.679688 60.632812 45.558594 63.28125 C 44.453125 65.898438 41.886719 67.597656 39.046875 67.597656 Z M 39.046875 67.597656 "/>
<path style=" stroke:none;fill-rule:nonzero;fill:rgb(95.686275%,66.27451%,24.705882%);fill-opacity:1;" d="M 43.527344 62.066406 C 43.394531 61.773438 43.046875 61.640625 42.75 61.773438 L 38.410156 63.722656 C 38.351562 63.75 38.296875 63.789062 38.246094 63.832031 C 38.199219 63.789062 38.144531 63.75 38.082031 63.722656 L 33.746094 61.773438 C 33.449219 61.640625 33.101562 61.773438 32.96875 62.066406 L 30.953125 66.550781 C 31.738281 67.003906 33.082031 66.914062 33.796875 67.433594 C 34.613281 68.03125 34.921875 69.691406 35.863281 70.097656 L 38.246094 64.796875 L 40.363281 69.5 C 41.15625 69.84375 41.96875 70.351562 42.636719 70.132812 C 43.65625 69.804688 43.957031 68.050781 44.804688 67.433594 C 45.0625 67.246094 45.402344 67.136719 45.769531 67.054688 Z M 43.527344 62.066406 "/>
<path style=" stroke:none;fill-rule:nonzero;fill:rgb(87.058824%,19.607843%,14.901961%);fill-opacity:1;" d="M 34.785156 72.550781 L 33.761719 70.730469 C 33.632812 70.507812 33.375 70.390625 33.125 70.445312 L 31.082031 70.882812 C 30.867188 70.929688 30.644531 70.847656 30.503906 70.675781 C 30.363281 70.503906 30.332031 70.269531 30.421875 70.066406 L 34.019531 62.066406 C 34.15625 61.773438 34.5 61.640625 34.796875 61.773438 L 39.136719 63.722656 C 39.429688 63.859375 39.558594 64.203125 39.429688 64.5 L 35.832031 72.5 C 35.742188 72.703125 35.546875 72.835938 35.324219 72.847656 C 35.101562 72.859375 34.894531 72.742188 34.785156 72.550781 Z M 34.785156 72.550781 "/>
<path style=" stroke:none;fill-rule:nonzero;fill:rgb(69.411765%,10.196078%,19.215686%);fill-opacity:1;" d="M 35.277344 63.535156 C 35.414062 63.242188 35.425781 62.910156 35.316406 62.605469 C 35.203125 62.304688 34.976562 62.058594 34.683594 61.925781 L 34.335938 61.765625 C 34.195312 61.820312 34.082031 61.929688 34.019531 62.066406 L 30.421875 70.066406 C 30.332031 70.269531 30.363281 70.503906 30.503906 70.675781 C 30.644531 70.847656 30.867188 70.929688 31.082031 70.882812 L 31.964844 70.691406 Z M 35.277344 63.535156 "/>
<path style=" stroke:none;fill-rule:nonzero;fill:rgb(87.058824%,19.607843%,14.901961%);fill-opacity:1;" d="M 43.8125 72.550781 L 44.839844 70.730469 C 44.964844 70.507812 45.222656 70.390625 45.476562 70.445312 L 47.515625 70.882812 C 47.734375 70.929688 47.957031 70.847656 48.09375 70.675781 C 48.234375 70.503906 48.265625 70.269531 48.175781 70.066406 L 44.578125 62.066406 C 44.445312 61.773438 44.097656 61.640625 43.800781 61.773438 L 39.460938 63.722656 C 39.167969 63.859375 39.035156 64.203125 39.167969 64.5 L 42.761719 72.5 C 42.855469 72.703125 43.050781 72.835938 43.273438 72.847656 C 43.492188 72.859375 43.703125 72.742188 43.8125 72.550781 Z M 43.8125 72.550781 "/>
<path style=" stroke:none;fill-rule:nonzero;fill:rgb(69.411765%,10.196078%,19.215686%);fill-opacity:1;" d="M 40.589844 64.148438 L 39.273438 64.734375 L 42.761719 72.5 C 42.855469 72.703125 43.050781 72.835938 43.273438 72.847656 C 43.492188 72.859375 43.703125 72.742188 43.8125 72.550781 L 44.105469 72.03125 Z M 40.589844 64.148438 "/>
<path style=" stroke:none;fill-rule:nonzero;fill:rgb(69.411765%,10.196078%,19.215686%);fill-opacity:1;" d="M 39.136719 63.722656 L 34.796875 61.773438 C 34.5 61.640625 34.15625 61.773438 34.019531 62.066406 L 33.039062 64.25 C 34.144531 66.035156 35.988281 67.238281 38.066406 67.53125 L 39.429688 64.5 C 39.558594 64.203125 39.429688 63.859375 39.136719 63.722656 Z M 39.136719 63.722656 "/>
<path style=" stroke:none;fill-rule:nonzero;fill:rgb(69.411765%,10.196078%,19.215686%);fill-opacity:1;" d="M 45.339844 63.753906 L 44.578125 62.066406 C 44.445312 61.773438 44.097656 61.640625 43.800781 61.773438 L 39.460938 63.722656 C 39.167969 63.859375 39.035156 64.203125 39.167969 64.5 L 40.492188 67.449219 C 40.941406 67.355469 41.378906 67.21875 41.800781 67.039062 C 43.324219 66.390625 44.578125 65.226562 45.339844 63.753906 Z M 45.339844 63.753906 "/>
<path style=" stroke:none;fill-rule:nonzero;fill:rgb(97.254902%,53.333333%,10.588235%);fill-opacity:1;" d="M 45.914062 59.683594 C 45.914062 63.335938 42.949219 66.296875 39.296875 66.296875 C 35.644531 66.296875 32.683594 63.335938 32.683594 59.683594 C 32.683594 56.03125 35.644531 53.070312 39.296875 53.070312 C 42.949219 53.070312 45.914062 56.03125 45.914062 59.683594 Z M 45.914062 59.683594 "/>
<path style=" stroke:none;fill-rule:nonzero;fill:rgb(94.117647%,50.196078%,0%);fill-opacity:1;" d="M 45.140625 59.683594 C 45.140625 62.910156 42.523438 65.527344 39.296875 65.527344 C 36.070312 65.527344 33.457031 62.910156 33.457031 59.683594 C 33.457031 56.457031 36.070312 53.84375 39.296875 53.84375 C 42.523438 53.84375 45.140625 56.457031 45.140625 59.683594 Z M 45.140625 59.683594 "/>
<path style=" stroke:none;fill-rule:nonzero;fill:rgb(95.686275%,76.078431%,24.705882%);fill-opacity:1;" d="M 44.484375 59.683594 C 44.484375 62.546875 42.160156 64.871094 39.296875 64.871094 C 36.433594 64.871094 34.109375 62.546875 34.109375 59.683594 C 34.109375 56.820312 36.433594 54.496094 39.296875 54.496094 C 42.160156 54.496094 44.484375 56.820312 44.484375 59.683594 Z M 44.484375 59.683594 "/>
<path style=" stroke:none;fill-rule:nonzero;fill:rgb(98.039216%,83.529412%,39.215686%);fill-opacity:1;" d="M 43.917969 52.039062 C 44.0625 51.953125 44.191406 51.839844 44.289062 51.703125 C 43.777344 50.929688 43.421875 49.835938 42.636719 49.582031 C 42.367188 49.492188 42.078125 49.523438 41.777344 49.613281 C 41.589844 49.972656 41.597656 50.402344 41.804688 50.75 L 42.292969 51.605469 C 42.625 52.171875 43.351562 52.367188 43.917969 52.039062 Z M 43.917969 52.039062 "/>
<path style=" stroke:none;fill-rule:nonzero;fill:rgb(98.039216%,83.529412%,39.215686%);fill-opacity:1;" d="M 39.324219 50.882812 C 39.40625 50.761719 39.460938 50.625 39.492188 50.480469 C 39.429688 50.488281 39.363281 50.492188 39.296875 50.492188 C 38.34375 50.492188 37.25 49.542969 36.332031 49.527344 C 36.265625 49.980469 36.46875 50.433594 36.855469 50.683594 L 37.683594 51.226562 C 38.230469 51.585938 38.964844 51.429688 39.324219 50.882812 Z M 39.324219 50.882812 "/>
<path style=" stroke:none;fill-rule:nonzero;fill:rgb(98.039216%,83.529412%,39.215686%);fill-opacity:1;" d="M 48.207031 56.964844 C 47.875 55.945312 48.65625 54.351562 48.039062 53.507812 C 47.652344 52.972656 46.816406 52.871094 46.039062 52.71875 C 45.828125 53.070312 45.738281 53.476562 45.78125 53.886719 L 45.933594 55.476562 C 46.03125 56.535156 46.972656 57.3125 48.03125 57.210938 C 48.121094 57.203125 48.207031 57.1875 48.292969 57.167969 C 48.257812 57.101562 48.230469 57.035156 48.207031 56.964844 Z M 48.207031 56.964844 "/>
<path style=" stroke:none;fill-rule:nonzero;fill:rgb(95.686275%,27.058824%,20%);fill-opacity:1;" d="M 36.878906 68.039062 C 37.320312 68.242188 37.511719 68.761719 37.308594 69.203125 L 36.640625 70.648438 C 36.4375 71.089844 35.914062 71.28125 35.472656 71.078125 C 35.035156 70.875 34.84375 70.351562 35.046875 69.914062 L 35.714844 68.464844 C 35.917969 68.027344 36.4375 67.835938 36.878906 68.039062 Z M 36.878906 68.039062 "/>
<path style=" stroke:none;fill-rule:nonzero;fill:rgb(95.686275%,27.058824%,20%);fill-opacity:1;" d="M 45.300781 65.820312 C 45.742188 65.621094 46.261719 65.820312 46.460938 66.265625 L 47.105469 67.71875 C 47.304688 68.164062 47.105469 68.679688 46.660156 68.878906 C 46.21875 69.074219 45.699219 68.875 45.503906 68.433594 L 44.855469 66.976562 C 44.65625 66.535156 44.855469 66.015625 45.300781 65.820312 Z M 45.300781 65.820312 "/>
<path style=" stroke:none;fill-rule:nonzero;fill:rgb(39.215686%,38.823529%,61.176471%);fill-opacity:1;" d="M 63.949219 49.097656 L 67.546875 49.097656 C 68.507812 49.097656 69.285156 49.875 69.285156 50.832031 L 69.285156 50.835938 C 69.285156 51.792969 68.507812 52.570312 67.546875 52.570312 L 63.949219 52.570312 C 62.988281 52.570312 62.210938 51.792969 62.210938 50.835938 L 62.210938 50.832031 C 62.210938 49.875 62.988281 49.097656 63.949219 49.097656 Z M 63.949219 49.097656 "/>
<path style=" stroke:none;fill-rule:nonzero;fill:rgb(39.215686%,38.823529%,61.176471%);fill-opacity:1;" d="M 50.207031 49.097656 L 53.808594 49.097656 C 54.765625 49.097656 55.542969 49.875 55.542969 50.832031 L 55.542969 50.835938 C 55.542969 51.792969 54.765625 52.570312 53.808594 52.570312 L 50.207031 52.570312 C 49.25 52.570312 48.472656 51.792969 48.472656 50.835938 L 48.472656 50.832031 C 48.472656 49.875 49.25 49.097656 50.207031 49.097656 Z M 50.207031 49.097656 "/>
<path style=" stroke:none;fill-rule:nonzero;fill:rgb(39.215686%,38.823529%,61.176471%);fill-opacity:1;" d="M 12.167969 49.097656 L 14.136719 49.097656 C 15.097656 49.097656 15.875 49.875 15.875 50.832031 L 15.875 50.835938 C 15.875 51.792969 15.097656 52.570312 14.136719 52.570312 L 12.167969 52.570312 C 11.207031 52.570312 10.429688 51.792969 10.429688 50.835938 L 10.429688 50.832031 C 10.429688 49.875 11.207031 49.097656 12.167969 49.097656 Z M 12.167969 49.097656 "/>
</g>
</svg>
